# xmcd CD database file
#
# Track frame offsets:
#	183
#	72780
#	107780
#	143775
#	180493
#
# Disc length: 2713 seconds
#
# Revision: 4
# Processed by: cddbd v1.5.2PL0 Copyright (c) Steve Scherf et al.
# Submitted via: CDex 1.51
#
DISCID=3f0a9705
DTITLE=Egberto Gismonti and Academia De Danças - Sanfona - Disk2
DYEAR=1981
DGENRE=Jazz
TTITLE0=De Repente
TTITLE1=Vale Do Eco
TTITLE2=Cavaquinho
TTITLE3=12 De Fevereiro
TTITLE4=Carta De Amor
EXTD=ECM 1204 YEAR: 1981
EXTT0=
EXTT1=
EXTT2=
EXTT3=
EXTT4=
PLAYORDER=
